<?xml version="1.0" encoding="UTF-8"?> <svg xmlns="http://www.w3.org/2000/svg" width="24" height="24" viewBox="0 0 24 24" fill="none"> <path d="M2.128 0L13.6248 11.2254L16.7771 8.12524L2.84138 0.211862C2.62441 0.0841453 2.37951 0.0114129 2.128 0V0ZM1.16552 0.521379C1.06207 0.703448 1 0.918621 1 1.15862V22.9721C1 23.1476 1.03724 23.3048 1.09931 23.4455L12.8618 11.9586L1.16552 0.521379ZM17.7396 8.66317L14.3713 11.9594L17.7396 15.2383L21.8535 12.9211C22.4386 12.5901 22.5214 12.168 22.5172 11.9429C22.5106 11.5713 22.2723 11.2254 21.8701 11.0127C21.52 10.8273 18.9172 9.33683 17.7396 8.66317V8.66317ZM13.6248 12.6935L2.02869 24C2.22152 23.9901 2.4309 23.9487 2.62621 23.837C3.07972 23.5779 12.2643 18.355 12.2643 18.355L16.7937 15.7937L13.6248 12.6935V12.6935Z" fill="#C4C4C4"></path> </svg> 