<?xml version="1.0" encoding="UTF-8"?> <svg xmlns="http://www.w3.org/2000/svg" width="24" height="24" viewBox="0 0 24 24" fill="none"> <path d="M19.3727 12.6464C19.3751 14.7841 20.7248 16.7129 22.8 17.5457C22.397 18.7827 21.795 19.9457 21.0176 20.9889C19.9672 22.4793 18.8655 23.9345 17.1191 23.9617C15.4207 23.9985 14.8503 23.0137 12.9031 23.0137C10.9367 23.0137 10.3287 23.9345 8.70071 23.9985C7.0367 24.0569 5.7647 22.4081 4.67669 20.9329C2.50068 17.9185 0.807877 12.4384 3.07829 8.70963C4.14389 6.89203 6.1383 5.73922 8.32951 5.67202C9.99511 5.64002 11.5423 6.73923 12.5663 6.73923C13.5711 6.73923 15.4823 5.42402 17.4535 5.62002C19.3271 5.67602 21.064 6.56643 22.1392 8.02243C20.4432 9.01203 19.3983 10.7576 19.3727 12.6464ZM15.9615 3.89282C15.5394 4.42986 14.9999 4.86299 14.3842 5.15894C13.7686 5.4549 13.0934 5.60579 12.4103 5.60002C12.3216 4.23425 12.7723 2.88818 13.6655 1.85121C14.5609 0.809982 15.8187 0.148191 17.1839 0C17.2912 1.40641 16.8536 2.80022 15.9615 3.89282Z" fill="#C4C4C4"></path> </svg> 