<?xml version="1.0" encoding="UTF-8"?> <svg xmlns="http://www.w3.org/2000/svg" width="24" height="24" viewBox="0 0 24 24" fill="none"> <path d="M4 3C2.68402 3 1.6 4.07211 1.6 5.37363V15.6593C1.6 16.2675 1.8433 16.8198 2.22969 17.2418H0C0 18.5528 1.0744 19.6154 2.4 19.6154H21.6C22.9256 19.6154 24 18.5528 24 17.2418H21.7703C22.1567 16.8198 22.4 16.2675 22.4 15.6593V5.37363C22.4 4.07211 21.316 3 20 3H4ZM4 4.58242H20C20.452 4.58242 20.8 4.92657 20.8 5.37363V15.6593C20.8 16.1064 20.452 16.4506 20 16.4506H4C3.54798 16.4506 3.2 16.1064 3.2 15.6593V5.37363C3.2 4.92657 3.54798 4.58242 4 4.58242Z" fill="#C4C4C4"></path> </svg> 